<?xml version="1.0" standalone="no"?>
<!DOCTYPE svg PUBLIC "-//W3C//DTD SVG 20010904//EN"
 "http://www.w3.org/TR/2001/REC-SVG-20010904/DTD/svg10.dtd">
<svg version="1.0" xmlns="http://www.w3.org/2000/svg"
 width="108.000000pt" height="108.000000pt" viewBox="0 0 108.000000 108.000000"
 preserveAspectRatio="xMidYMid meet">
<metadata>
Created by potrace 1.14, written by Peter Selinger 2001-2017
</metadata>
<g transform="translate(0.000000,108.000000) scale(0.100000,-0.100000)"
fill="#000000" stroke="none">
<path d="M463 925 c-157 -43 -312 -184 -405 -370 -107 -213 -52 -394 125 -412
48 -5 64 -2 112 21 30 15 79 50 109 77 30 27 56 49 58 49 3 0 5 -13 6 -30 1
-42 29 -85 71 -108 44 -25 139 -24 187 1 81 42 202 180 309 352 46 73 47 76
29 90 -39 30 -39 30 -134 -117 -38 -58 -97 -133 -130 -166 -58 -58 -114 -90
-125 -72 -13 21 19 153 61 247 41 93 40 101 -16 155 -42 40 -56 48 -88 48
l-39 0 -22 -85 c-19 -70 -33 -98 -78 -158 -121 -159 -196 -215 -249 -186 -73
39 -31 244 84 419 97 146 232 220 292 160 19 -19 23 -31 35 -102 3 -21 9 -38
13 -39 4 0 16 -2 27 -4 33 -7 48 10 47 49 -3 85 -33 145 -83 171 -41 22 -135
26 -196 10z"/>
</g>
</svg>
